<?xml version="1.0" encoding="UTF-8"?>
<svg xmlns="http://www.w3.org/2000/svg" xmlns:xlink="http://www.w3.org/1999/xlink" width="24px" height="20px" viewBox="0 0 24 20" version="1.1">
<g id="surface1">
<path style=" stroke:none;fill-rule:nonzero;fill:rgb(0%,60.784314%,22.745098%);fill-opacity:1;" d="M 24 15 C 24 16.226562 22.804688 17.222656 21.332031 17.222656 L 2.667969 17.222656 C 1.195312 17.222656 0 16.226562 0 15 L 0 5 C 0 3.773438 1.195312 2.777344 2.667969 2.777344 L 21.332031 2.777344 C 22.804688 2.777344 24 3.773438 24 5 Z M 24 15 "/>
<path style=" stroke:none;fill-rule:nonzero;fill:rgb(99.607843%,87.45098%,0.392157%);fill-opacity:1;" d="M 21.820312 10 L 12 16.179688 L 2.179688 10 L 12 3.820312 Z M 21.820312 10 "/>
<path style=" stroke:none;fill-rule:nonzero;fill:rgb(0%,15.294118%,46.27451%);fill-opacity:1;" d="M 16.289062 9.957031 C 16.289062 11.9375 14.363281 13.546875 11.984375 13.546875 C 9.605469 13.546875 7.679688 11.9375 7.679688 9.957031 C 7.679688 7.976562 9.605469 6.371094 11.984375 6.371094 C 14.363281 6.371094 16.289062 7.976562 16.289062 9.957031 Z M 16.289062 9.957031 "/>
<path style=" stroke:none;fill-rule:nonzero;fill:rgb(79.607843%,91.372549%,83.137255%);fill-opacity:1;" d="M 8.183594 8.269531 C 7.960938 8.621094 7.808594 9 7.738281 9.394531 C 10.398438 9.234375 14.015625 10.445312 15.566406 11.945312 C 15.835938 11.613281 16.03125 11.234375 16.15625 10.832031 C 14.238281 9.273438 10.875 8.261719 8.183594 8.269531 Z M 8.183594 8.269531 "/>
<path style=" stroke:none;fill-rule:nonzero;fill:rgb(53.333333%,78.823529%,97.647059%);fill-opacity:1;" d="M 8 10.128906 L 8.667969 10.128906 L 8.667969 10.683594 L 8 10.683594 Z M 8.667969 11.242188 L 9.332031 11.242188 L 9.332031 11.796875 L 8.667969 11.796875 Z M 8.667969 11.242188 "/>
<path style=" stroke:none;fill-rule:nonzero;fill:rgb(33.333333%,67.45098%,93.333333%);fill-opacity:1;" d="M 10 10.128906 L 10.667969 10.128906 L 10.667969 10.683594 L 10 10.683594 Z M 11.332031 10.683594 L 12 10.683594 L 12 11.242188 L 11.332031 11.242188 Z M 14 11.796875 L 14.667969 11.796875 L 14.667969 12.351562 L 14 12.351562 Z M 12 12.351562 L 12.667969 12.351562 L 12.667969 12.90625 L 12 12.90625 Z M 14 9.019531 L 14.667969 9.019531 L 14.667969 9.574219 L 14 9.574219 Z M 14 9.019531 "/>
<path style=" stroke:none;fill-rule:nonzero;fill:rgb(23.137255%,53.333333%,76.470588%);fill-opacity:1;" d="M 12.667969 11.242188 L 13.332031 11.242188 L 13.332031 11.796875 L 12.667969 11.796875 Z M 12.667969 11.242188 "/>
</g>
</svg>
