<?xml version="1.0" encoding="UTF-8"?>
<!DOCTYPE svg PUBLIC "-//W3C//DTD SVG 1.1//EN" "http://www.w3.org/Graphics/SVG/1.1/DTD/svg11.dtd">
<svg xmlns="http://www.w3.org/2000/svg" version="1.1" width="24px" height="20px" style="shape-rendering:geometricPrecision; text-rendering:geometricPrecision; image-rendering:optimizeQuality; fill-rule:evenodd; clip-rule:evenodd" xmlns:xlink="http://www.w3.org/1999/xlink">
<g><path style="opacity:1" fill="#10141d" d="M -0.5,-0.5 C 7.5,-0.5 15.5,-0.5 23.5,-0.5C 23.5,4.83333 23.5,10.1667 23.5,15.5C 22.2395,12.7422 21.4061,9.74222 21,6.5C 20.79,8.05814 20.29,9.39147 19.5,10.5C 19.5,9.5 19.5,8.5 19.5,7.5C 14.1667,7.5 8.83333,7.5 3.5,7.5C 3.5,8.83333 3.5,10.1667 3.5,11.5C 3.5,12.8333 3.5,14.1667 3.5,15.5C 2.16667,14.1667 0.833333,14.1667 -0.5,15.5C -0.5,10.1667 -0.5,4.83333 -0.5,-0.5 Z"/></g>
<g><path style="opacity:1" fill="#d22b20" d="M 19.5,10.5 C 19.5,10.8333 19.5,11.1667 19.5,11.5C 14.1667,11.5 8.83333,11.5 3.5,11.5C 3.5,10.1667 3.5,8.83333 3.5,7.5C 8.83333,7.5 14.1667,7.5 19.5,7.5C 19.5,8.5 19.5,9.5 19.5,10.5 Z"/></g>
<g><path style="opacity:1" fill="#121723" d="M 23.5,15.5 C 23.5,16.8333 23.5,18.1667 23.5,19.5C 15.5,19.5 7.5,19.5 -0.5,19.5C -0.5,18.1667 -0.5,16.8333 -0.5,15.5C 0.833333,14.1667 2.16667,14.1667 3.5,15.5C 8.83333,15.5 14.1667,15.5 19.5,15.5C 19.5,14.1667 19.5,12.8333 19.5,11.5C 19.5,11.1667 19.5,10.8333 19.5,10.5C 20.29,9.39147 20.79,8.05814 21,6.5C 21.4061,9.74222 22.2395,12.7422 23.5,15.5 Z"/></g>
<g><path style="opacity:1" fill="#eeee2d" d="M 3.5,11.5 C 8.83333,11.5 14.1667,11.5 19.5,11.5C 19.5,12.8333 19.5,14.1667 19.5,15.5C 14.1667,15.5 8.83333,15.5 3.5,15.5C 3.5,14.1667 3.5,12.8333 3.5,11.5 Z"/></g>
</svg>
