<?xml version="1.0" encoding="UTF-8"?>
<svg xmlns="http://www.w3.org/2000/svg" xmlns:xlink="http://www.w3.org/1999/xlink" width="23px" height="23px" viewBox="0 0 23 23" version="1.1">
<g id="surface1">
<path style=" stroke:none;fill-rule:evenodd;fill:rgb(0%,0%,0%);fill-opacity:1;" d="M 1.4375 16.230469 C 1.4375 19.203125 3.851562 21.617188 6.820312 21.617188 L 16.179688 21.617188 C 19.148438 21.617188 21.5625 19.203125 21.5625 16.230469 C 21.5625 16.230469 21.5625 6.875 21.5625 6.875 C 21.5625 3.90625 19.148438 1.492188 16.179688 1.492188 C 16.179688 1.492188 6.820312 1.492188 6.820312 1.492188 C 3.851562 1.492188 1.4375 3.90625 1.4375 6.875 L 1.4375 8.90625 C 1.4375 9.296875 1.753906 9.609375 2.144531 9.609375 C 2.535156 9.609375 2.847656 9.296875 2.847656 8.90625 L 2.847656 6.875 C 2.847656 4.683594 4.628906 2.902344 6.820312 2.902344 L 16.179688 2.902344 C 18.371094 2.902344 20.152344 4.683594 20.152344 6.875 L 20.152344 16.230469 C 20.152344 18.425781 18.371094 20.203125 16.179688 20.203125 C 16.179688 20.203125 6.820312 20.203125 6.820312 20.203125 C 4.628906 20.203125 2.847656 18.425781 2.847656 16.230469 C 2.847656 15.84375 2.535156 15.523438 2.144531 15.523438 C 1.753906 15.523438 1.4375 15.84375 1.4375 16.230469 Z M 11.5 7.316406 C 9.0625 7.316406 7.085938 9.296875 7.085938 11.730469 C 7.085938 14.167969 9.0625 16.144531 11.5 16.144531 C 13.9375 16.144531 15.914062 14.167969 15.914062 11.730469 C 15.914062 9.296875 13.9375 7.316406 11.5 7.316406 Z M 11.5 8.375 C 13.351562 8.375 14.855469 9.878906 14.855469 11.730469 C 14.855469 13.582031 13.351562 15.082031 11.5 15.082031 C 9.648438 15.082031 8.144531 13.582031 8.144531 11.730469 C 8.144531 9.878906 9.648438 8.375 11.5 8.375 Z M 1.4375 11.023438 L 1.4375 13.847656 C 1.4375 14.238281 1.753906 14.554688 2.144531 14.554688 C 2.535156 14.554688 2.847656 14.238281 2.847656 13.847656 L 2.847656 11.023438 C 2.847656 10.636719 2.535156 10.316406 2.144531 10.316406 C 1.753906 10.316406 1.4375 10.636719 1.4375 11.023438 Z M 16.972656 4.140625 C 16 4.140625 15.207031 4.929688 15.207031 5.902344 C 15.207031 6.878906 16 7.671875 16.972656 7.671875 C 17.945312 7.671875 18.738281 6.878906 18.738281 5.902344 C 18.738281 4.929688 17.945312 4.140625 16.972656 4.140625 Z M 16.972656 5.199219 C 17.363281 5.199219 17.679688 5.515625 17.679688 5.902344 C 17.679688 6.296875 17.363281 6.609375 16.972656 6.609375 C 16.582031 6.609375 16.269531 6.296875 16.269531 5.902344 C 16.269531 5.515625 16.582031 5.199219 16.972656 5.199219 Z M 16.972656 5.199219 "/>
</g>
</svg>
