<?xml version="1.0" encoding="UTF-8"?>
<svg xmlns="http://www.w3.org/2000/svg" xmlns:xlink="http://www.w3.org/1999/xlink" width="23px" height="23px" viewBox="0 0 23 23" version="1.1">
<g id="surface1">
<path style=" stroke:none;fill-rule:evenodd;fill:rgb(0%,0%,0%);fill-opacity:1;" d="M 1.4375 3.832031 C 1.4375 3.566406 1.652344 3.355469 1.917969 3.355469 L 21.082031 3.355469 C 21.347656 3.355469 21.5625 3.566406 21.5625 3.832031 L 21.5625 19.167969 C 21.5625 19.433594 21.347656 19.644531 21.082031 19.644531 L 1.917969 19.644531 C 1.652344 19.644531 1.4375 19.433594 1.4375 19.167969 Z M 2.394531 4.3125 L 2.394531 18.6875 L 20.605469 18.6875 L 20.605469 4.3125 Z M 2.394531 4.3125 "/>
<path style=" stroke:none;fill-rule:evenodd;fill:rgb(0%,0%,0%);fill-opacity:1;" d="M 1.464844 3.675781 C 1.53125 3.480469 1.714844 3.355469 1.917969 3.355469 L 21.082031 3.355469 C 21.285156 3.355469 21.46875 3.480469 21.535156 3.675781 C 21.601562 3.867188 21.542969 4.082031 21.382812 4.207031 L 11.800781 11.875 C 11.625 12.015625 11.375 12.015625 11.199219 11.875 L 1.617188 4.207031 C 1.457031 4.082031 1.398438 3.867188 1.464844 3.675781 Z M 3.28125 4.3125 L 11.5 10.886719 L 19.71875 4.3125 Z M 3.28125 4.3125 "/>
</g>
</svg>
