<?xml version="1.0" encoding="UTF-8"?>
<svg xmlns="http://www.w3.org/2000/svg" xmlns:xlink="http://www.w3.org/1999/xlink" width="24px" height="20px" viewBox="0 0 24 20" version="1.1">
<g id="surface1">
<path style=" stroke:none;fill-rule:nonzero;fill:rgb(86.666667%,18.039216%,26.666667%);fill-opacity:1;" d="M 21.332031 2.777344 L 16 2.777344 L 16 17.222656 L 21.332031 17.222656 C 22.804688 17.222656 24 16.226562 24 15 L 24 5 C 24 3.773438 22.804688 2.777344 21.332031 2.777344 Z M 21.332031 2.777344 "/>
<path style=" stroke:none;fill-rule:nonzero;fill:rgb(14.901961%,37.254902%,70.980392%);fill-opacity:1;" d="M 2.667969 2.777344 C 1.195312 2.777344 0 3.773438 0 5 L 0 15 C 0 16.226562 1.195312 17.222656 2.667969 17.222656 L 8 17.222656 L 8 2.777344 Z M 2.667969 2.777344 "/>
<path style=" stroke:none;fill-rule:nonzero;fill:rgb(100%,80%,30.196078%);fill-opacity:1;" d="M 8 2.777344 L 16 2.777344 L 16 17.222656 L 8 17.222656 Z M 8 2.777344 "/>
<path style=" stroke:none;fill-rule:nonzero;fill:rgb(86.666667%,18.039216%,26.666667%);fill-opacity:1;" d="M 10.667969 8.332031 L 13.332031 8.332031 L 13.332031 10 L 10.667969 10 Z M 10.667969 8.332031 "/>
<path style=" stroke:none;fill-rule:nonzero;fill:rgb(13.333333%,40%,60%);fill-opacity:1;" d="M 10.667969 10 L 10.667969 11.109375 L 12 11.667969 L 13.332031 11.109375 L 13.332031 10 Z M 10.667969 10 "/>
<path style=" stroke:none;fill-rule:nonzero;fill:rgb(62.745098%,44.705882%,29.019608%);fill-opacity:1;" d="M 10.667969 6.109375 L 10.667969 6.667969 L 11.332031 6.667969 L 11.332031 7.777344 L 12.667969 7.777344 L 12.667969 6.109375 Z M 12.667969 11.667969 L 12 12.015625 L 11.332031 11.667969 L 10.667969 13.332031 L 12 13.890625 L 13.332031 13.332031 Z M 10 7.222656 L 9.332031 6.667969 L 8.667969 7.222656 L 8.667969 12.777344 L 10 11.667969 L 10 7.777344 L 10.667969 7.777344 Z M 14.667969 6.667969 L 13.332031 7.777344 L 14 7.777344 L 14 11.667969 L 15.332031 12.777344 L 15.332031 7.222656 Z M 14.667969 6.667969 "/>
<path style=" stroke:none;fill-rule:nonzero;fill:rgb(100%,80%,30.196078%);fill-opacity:1;" d="M 10.824219 9.773438 L 11.175781 9.773438 L 11.175781 10 L 10.824219 10 Z M 12.824219 9.773438 L 13.175781 9.773438 L 13.175781 10 L 12.824219 10 Z M 12.824219 9.773438 "/>
<path style=" stroke:none;fill-rule:nonzero;fill:rgb(46.666667%,69.803922%,33.333333%);fill-opacity:1;" d="M 10.425781 12.636719 C 10.355469 12.667969 10.25 12.628906 10.191406 12.546875 L 8.703125 10.398438 C 8.644531 10.316406 8.65625 10.21875 8.726562 10.1875 L 8.820312 10.144531 C 8.890625 10.109375 8.992188 10.148438 9.050781 10.230469 L 10.539062 12.378906 C 10.597656 12.460938 10.585938 12.558594 10.515625 12.589844 Z M 10.425781 12.636719 "/>
<path style=" stroke:none;fill-rule:nonzero;fill:rgb(100%,80%,30.196078%);fill-opacity:1;" d="M 15.210938 10.21875 C 15.28125 10.253906 15.292969 10.347656 15.238281 10.429688 L 13.777344 12.539062 C 13.71875 12.621094 13.617188 12.65625 13.542969 12.625 L 13.453125 12.582031 C 13.382812 12.546875 13.371094 12.453125 13.429688 12.371094 L 14.890625 10.261719 C 14.945312 10.179688 15.050781 10.140625 15.121094 10.175781 Z M 15.210938 10.21875 "/>
<path style=" stroke:none;fill-rule:nonzero;fill:rgb(86.666667%,18.039216%,26.666667%);fill-opacity:1;" d="M 10.667969 11.667969 L 10 12.222656 L 10 12.777344 L 10.667969 12.222656 Z M 13.332031 11.667969 L 13.332031 12.222656 L 14 12.777344 L 14 12.222656 Z M 13.332031 11.667969 "/>
<path style=" stroke:none;fill-rule:nonzero;fill:rgb(100%,80%,30.196078%);fill-opacity:1;" d="M 12 9.445312 L 11.332031 8.890625 L 11.332031 10.53125 L 12 11.109375 L 12.667969 10.53125 L 12.667969 8.890625 Z M 12 9.445312 "/>
</g>
</svg>
