<?xml version="1.0" encoding="UTF-8"?>
<svg xmlns="http://www.w3.org/2000/svg" xmlns:xlink="http://www.w3.org/1999/xlink" width="23px" height="23px" viewBox="0 0 23 23" version="1.1">
<g id="surface1">
<path style=" stroke:none;fill-rule:nonzero;fill:rgb(0%,0%,0%);fill-opacity:1;" d="M 21.878906 5.761719 C 21.695312 5.730469 21.523438 5.855469 21.496094 6.039062 L 19.476562 18.710938 C 19.476562 18.71875 19.472656 18.726562 19.472656 18.734375 C 19.472656 18.742188 19.371094 19.742188 18.703125 19.898438 C 17.972656 20.070312 16.570312 19.222656 16.273438 18.984375 C 16.21875 18.941406 16.046875 18.828125 15.660156 18.578125 C 14.535156 17.84375 11.902344 16.125 10.820312 15.207031 C 10.398438 14.867188 10.355469 14.402344 10.882812 13.972656 C 12.796875 12.21875 15.140625 9.988281 16.578125 8.550781 C 16.863281 8.265625 17.511719 7.425781 17.128906 6.960938 C 16.800781 6.566406 16.113281 6.785156 14.746094 7.710938 L 7.113281 12.855469 C 6.757812 13.105469 7.113281 13.648438 7.488281 13.410156 C 7.566406 13.523438 18.539062 5.53125 16.105469 8.078125 C 14.671875 9.507812 12.339844 11.730469 10.4375 13.476562 C 9.636719 14.152344 9.605469 15.046875 10.386719 15.714844 C 11.503906 16.660156 14.0625 18.335938 15.292969 19.136719 C 15.582031 19.328125 15.832031 19.488281 15.863281 19.511719 C 16.109375 19.710938 17.445312 20.589844 18.496094 20.589844 C 19.773438 20.625 20.132812 19.113281 20.140625 18.804688 C 20.140625 18.804688 22.15625 6.144531 22.15625 6.144531 C 22.183594 5.960938 22.058594 5.789062 21.878906 5.761719 Z M 21.878906 5.761719 "/>
<path style=" stroke:none;fill-rule:nonzero;fill:rgb(0%,0%,0%);fill-opacity:1;" d="M 21.953125 2.65625 C 21.304688 2.171875 20.285156 2.542969 20.167969 2.589844 C 17.335938 3.761719 5.421875 8.699219 2.089844 10.058594 C 0.582031 10.589844 0.09375 11.621094 1.113281 12.332031 C 1.132812 12.347656 1.15625 12.359375 1.183594 12.367188 C 1.199219 12.371094 3.101562 13.023438 4.714844 13.507812 C 5.136719 13.625 5.324219 13 4.90625 12.867188 C 3.441406 12.429688 1.738281 11.847656 1.445312 11.75 C 0.960938 11.378906 1.441406 11.058594 2.339844 10.679688 C 5.710938 9.300781 17.542969 4.398438 20.414062 3.210938 C 20.96875 3.023438 21.890625 2.867188 21.75 3.953125 C 21.730469 4.136719 21.867188 4.296875 22.050781 4.316406 C 22.234375 4.332031 22.398438 4.195312 22.414062 4.011719 C 22.46875 3.382812 22.316406 2.929688 21.953125 2.65625 Z M 21.953125 2.65625 "/>
</g>
</svg>
