<?xml version="1.0" encoding="UTF-8"?>
<svg xmlns="http://www.w3.org/2000/svg" xmlns:xlink="http://www.w3.org/1999/xlink" width="23px" height="23px" viewBox="0 0 23 23" version="1.1">
<g id="surface1">
<path style=" stroke:none;fill-rule:nonzero;fill:rgb(0%,0%,0%);fill-opacity:1;" d="M 21 16.351562 C 20.222656 15.730469 19.410156 15.148438 18.601562 14.59375 C 16.96875 13.441406 15.546875 13.558594 14.457031 15.195312 C 14.027344 15.847656 13.441406 15.980469 12.625 15.609375 C 12.234375 15.4375 11.96875 16.019531 12.355469 16.203125 C 13.472656 16.707031 14.386719 16.484375 15 15.554688 C 15.894531 14.21875 16.878906 14.191406 18.222656 15.125 C 19.027344 15.679688 19.839844 16.253906 20.605469 16.871094 C 21.496094 17.554688 22.027344 18.023438 21.65625 19.078125 C 21.089844 20.605469 19.175781 22.179688 17.671875 21.957031 C 10.042969 19.203125 4.539062 13.566406 1.578125 6.363281 C 0.640625 4.109375 1.625 2.179688 3.941406 1.421875 C 4.34375 1.289062 4.710938 1.289062 5.070312 1.417969 C 6 1.761719 8.660156 5.386719 8.710938 6.394531 C 8.75 7.078125 8.273438 7.460938 7.738281 7.824219 C 6.628906 8.578125 6.386719 9.605469 6.992188 10.964844 C 7.8125 12.8125 9.121094 14.308594 10.882812 15.414062 C 11.25 15.632812 11.585938 15.097656 11.226562 14.863281 C 9.578125 13.828125 8.351562 12.429688 7.585938 10.703125 C 6.402344 8.09375 9.449219 8.632812 9.363281 6.359375 C 9.292969 5.082031 6.480469 1.242188 5.292969 0.804688 C 3.671875 0.210938 1.441406 1.824219 0.914062 3.125 C 0.441406 4.152344 0.464844 5.355469 0.972656 6.609375 C 3.917969 13.832031 9.175781 19.117188 16.601562 22.316406 C 18.839844 23.453125 21.535156 21.257812 22.265625 19.296875 C 22.816406 17.742188 21.808594 16.96875 21 16.351562 Z M 21 16.351562 "/>
<path style=" stroke:none;fill-rule:nonzero;fill:rgb(0%,0%,0%);fill-opacity:1;" d="M 12.0625 2.160156 C 17.335938 2.800781 19.988281 5.546875 20.449219 10.859375 C 20.457031 11.277344 20.46875 12.058594 21.332031 12.078125 C 22.121094 12.109375 22.304688 11.414062 22.234375 10.789062 C 22.234375 10.53125 22.230469 10.234375 21.90625 10.21875 C 21.726562 10.21875 21.578125 10.363281 21.574219 10.542969 C 21.570312 10.773438 21.640625 11.238281 21.527344 11.386719 C 21.503906 11.414062 21.433594 11.429688 21.34375 11.425781 C 21.171875 11.421875 21.109375 11.421875 21.101562 10.847656 C 20.632812 5.152344 17.765625 2.175781 12.113281 1.511719 C 11.613281 1.476562 11.617188 1.429688 11.621094 1.332031 C 11.628906 1.207031 11.65625 1.121094 11.699219 1.085938 C 11.875 0.96875 12.300781 1.082031 12.535156 1.042969 C 17.058594 1.210938 21.097656 5.0625 21.539062 9.644531 C 21.582031 10.066406 22.222656 10.007812 22.183594 9.578125 C 21.703125 4.574219 17.191406 0.375 12.222656 0.390625 C 11.625 0.308594 10.992188 0.523438 10.972656 1.292969 C 10.925781 2.078125 11.695312 2.132812 12.0625 2.160156 Z M 12.0625 2.160156 "/>
<path style=" stroke:none;fill-rule:nonzero;fill:rgb(0%,0%,0%);fill-opacity:1;" d="M 13.21875 2.964844 C 12.769531 2.890625 11.9375 2.753906 11.785156 3.671875 C 11.636719 4.429688 12.257812 4.730469 12.867188 4.773438 C 16.050781 5.367188 17.335938 6.535156 17.824219 9.707031 C 17.855469 10.429688 17.941406 11.199219 18.917969 11.058594 C 19.808594 10.875 19.574219 10.128906 19.621094 9.652344 C 19.65625 6.308594 16.730469 3.292969 13.21875 2.964844 Z M 18.820312 10.414062 C 18.683594 10.433594 18.613281 10.417969 18.585938 10.398438 C 18.078125 6.566406 16.96875 4.863281 12.957031 4.128906 C 12.765625 4.101562 12.5 4.066406 12.4375 3.980469 C 12.414062 3.945312 12.410156 3.875 12.425781 3.78125 C 12.449219 3.636719 12.476562 3.558594 12.6875 3.558594 C 16.140625 3.679688 19.195312 6.632812 18.96875 9.960938 C 18.980469 10.386719 18.941406 10.394531 18.820312 10.414062 Z M 18.820312 10.414062 "/>
<path style=" stroke:none;fill-rule:nonzero;fill:rgb(0%,0%,0%);fill-opacity:1;" d="M 13.691406 5.535156 C 13.40625 5.542969 12.804688 5.558594 12.597656 6.164062 C 12.339844 6.847656 12.847656 7.269531 13.460938 7.328125 C 14.636719 7.515625 15.242188 8.164062 15.367188 9.375 C 15.410156 9.90625 15.808594 10.351562 16.339844 10.28125 C 17.183594 10.179688 17.152344 9.328125 17.140625 9.0625 C 17.226562 7.492188 15.289062 5.445312 13.691406 5.535156 Z M 16.265625 9.636719 C 16.09375 9.648438 16.035156 9.484375 16.011719 9.308594 C 15.859375 7.804688 15.039062 6.921875 13.5625 6.683594 C 13.160156 6.601562 13.144531 6.605469 13.214844 6.375 C 13.253906 6.25 13.335938 6.195312 13.707031 6.1875 C 14.945312 6.113281 16.574219 7.847656 16.492188 9.070312 C 16.511719 9.605469 16.386719 9.621094 16.265625 9.636719 Z M 16.265625 9.636719 "/>
</g>
</svg>
