<?xml version="1.0" encoding="UTF-8"?>
<svg xmlns="http://www.w3.org/2000/svg" xmlns:xlink="http://www.w3.org/1999/xlink" width="23px" height="23px" viewBox="0 0 23 23" version="1.1">
<g id="surface1">
<path style=" stroke:none;fill-rule:nonzero;fill:rgb(0%,0%,0%);fill-opacity:1;" d="M 22.507812 18.066406 C 21.46875 14.285156 18.617188 12.191406 17.4375 11.46875 C 21.574219 8.457031 21.652344 4.992188 21.652344 4.839844 C 21.652344 4.742188 21.617188 4.652344 21.546875 4.585938 C 21.480469 4.519531 21.390625 4.476562 21.292969 4.476562 L 17.828125 4.476562 C 17.671875 4.476562 17.53125 4.582031 17.484375 4.734375 C 16.355469 8.382812 14.066406 9.398438 13.136719 9.664062 L 13.136719 4.835938 C 13.136719 4.640625 12.972656 4.476562 12.777344 4.476562 L 9.402344 4.476562 C 9.203125 4.476562 9.042969 4.640625 9.042969 4.835938 L 9.042969 13.546875 C 7.964844 13.019531 5.269531 11.078125 4.964844 4.824219 C 4.953125 4.632812 4.792969 4.480469 4.605469 4.480469 L 0.835938 4.480469 C 0.640625 4.480469 0.476562 4.644531 0.476562 4.839844 L 0.476562 6.21875 C 0.476562 13 5.996094 18.523438 12.78125 18.523438 C 12.976562 18.523438 13.140625 18.359375 13.140625 18.164062 L 13.140625 13.824219 C 16.917969 14.515625 17.972656 18.101562 18.019531 18.257812 C 18.0625 18.410156 18.207031 18.519531 18.363281 18.519531 L 22.164062 18.519531 C 22.273438 18.519531 22.382812 18.464844 22.445312 18.378906 C 22.519531 18.289062 22.539062 18.175781 22.507812 18.066406 Z M 18.621094 17.804688 C 18.265625 16.839844 16.757812 13.527344 12.820312 13.054688 C 12.722656 13.039062 12.617188 13.070312 12.542969 13.144531 C 12.464844 13.210938 12.421875 13.308594 12.421875 13.414062 L 12.421875 17.800781 C 6.199219 17.605469 1.195312 12.484375 1.195312 6.214844 L 1.195312 5.195312 L 4.269531 5.195312 C 4.78125 13.230469 9.132812 14.375 9.320312 14.421875 C 9.429688 14.445312 9.542969 14.421875 9.628906 14.351562 C 9.714844 14.285156 9.765625 14.179688 9.765625 14.070312 L 9.765625 5.191406 L 12.421875 5.191406 L 12.421875 10.105469 C 12.421875 10.210938 12.460938 10.304688 12.542969 10.375 C 12.617188 10.445312 12.722656 10.476562 12.820312 10.464844 C 12.972656 10.449219 16.503906 9.976562 18.09375 5.195312 L 20.898438 5.195312 C 20.746094 6.164062 20.023438 8.882812 16.566406 11.199219 C 16.460938 11.269531 16.402344 11.390625 16.410156 11.523438 C 16.414062 11.652344 16.492188 11.761719 16.605469 11.820312 C 16.648438 11.835938 20.332031 13.714844 21.679688 17.800781 L 18.621094 17.800781 Z M 18.621094 17.804688 "/>
</g>
</svg>
