<?xml version="1.0" encoding="UTF-8"?>
<svg xmlns="http://www.w3.org/2000/svg" xmlns:xlink="http://www.w3.org/1999/xlink" width="23px" height="23px" viewBox="0 0 23 23" version="1.1">
<g id="surface1">
<path style=" stroke:none;fill-rule:nonzero;fill:rgb(0%,0%,0%);fill-opacity:1;" d="M 17.929688 5.023438 C 14.847656 1.828125 9.464844 1.484375 6 4.265625 C 5.671875 4.527344 6.058594 5.019531 6.390625 4.769531 C 11.878906 0.5 19.964844 4.46875 19.941406 11.425781 C 19.941406 16.058594 16.167969 19.832031 11.53125 19.832031 C 9.890625 19.835938 8.300781 19.34375 6.929688 18.472656 C 6.855469 18.429688 6.769531 18.414062 6.6875 18.4375 L 3.914062 19.164062 C 3.914062 19.164062 4.652344 16.476562 4.652344 16.476562 C 4.675781 16.390625 4.660156 16.296875 4.613281 16.222656 C 2.390625 13.070312 2.691406 8.492188 5.375 5.699219 C 5.652344 5.394531 5.199219 4.960938 4.90625 5.265625 C 3.347656 6.945312 2.484375 9.128906 2.484375 11.417969 C 2.480469 13.210938 3.015625 14.953125 4 16.441406 C 4 16.441406 3.15625 19.527344 3.15625 19.527344 C 3.089844 19.75 3.316406 19.988281 3.542969 19.917969 C 3.542969 19.917969 6.71875 19.085938 6.71875 19.085938 C 15.878906 24.632812 25.367188 12.726562 17.929688 5.023438 Z M 17.929688 5.023438 "/>
<path style=" stroke:none;fill-rule:nonzero;fill:rgb(0%,0%,0%);fill-opacity:1;" d="M 19.1875 3.773438 C 10.230469 -4.929688 -3.871094 5.726562 2.089844 16.707031 C 2.089844 16.707031 0.636719 22.023438 0.636719 22.023438 C 0.566406 22.246094 0.792969 22.480469 1.023438 22.414062 C 1.023438 22.414062 6.46875 20.984375 6.46875 20.984375 C 17.398438 26.65625 27.808594 12.566406 19.1875 3.773438 Z M 11.527344 21.605469 C 9.832031 21.605469 8.148438 21.175781 6.664062 20.367188 C 6.589844 20.328125 6.507812 20.316406 6.429688 20.339844 L 1.394531 21.660156 L 2.738281 16.75 C 2.761719 16.667969 2.75 16.578125 2.707031 16.503906 C -1.21875 9.835938 3.785156 1.167969 11.53125 1.234375 C 17.007812 1.125 21.832031 5.949219 21.714844 11.425781 C 21.714844 17.039062 17.144531 21.605469 11.527344 21.605469 Z M 11.527344 21.605469 "/>
<path style=" stroke:none;fill-rule:nonzero;fill:rgb(0%,0%,0%);fill-opacity:1;" d="M 9.589844 10.234375 C 9.777344 10.027344 9.925781 9.804688 10.023438 9.578125 C 10.199219 9.226562 10.050781 8.929688 10 8.832031 C 9.820312 8.410156 9.378906 7.289062 9.199219 6.894531 C 8.941406 6.328125 8.613281 6.269531 8.332031 6.257812 C 7.789062 6.257812 7.394531 6.132812 6.832031 6.734375 C 6.546875 7.039062 5.878906 7.75 5.878906 9.085938 C 5.890625 10.40625 6.679688 11.53125 7.058594 12.058594 C 8.359375 13.984375 9.984375 15.40625 11.632812 16.054688 C 13.15625 16.65625 13.886719 16.777344 14.359375 16.777344 C 14.585938 16.777344 14.734375 16.753906 14.929688 16.734375 C 15.226562 16.703125 15.660156 16.527344 16.054688 16.273438 C 16.203125 16.179688 16.246094 15.980469 16.148438 15.832031 C 16.054688 15.683594 15.855469 15.644531 15.710938 15.738281 C 15.253906 16.015625 15.03125 16.09375 14.722656 16.117188 C 14.308594 16.164062 13.796875 16.222656 11.867188 15.464844 C 10.3125 14.859375 8.738281 13.441406 7.519531 11.605469 C 6.605469 10.417969 5.929688 8.511719 7.296875 7.167969 C 7.644531 6.769531 7.929688 6.90625 8.304688 6.890625 C 8.441406 6.898438 8.5 6.898438 8.617188 7.15625 C 8.777344 7.503906 9.285156 8.785156 9.429688 9.117188 C 9.503906 9.261719 9.457031 9.273438 9.414062 9.371094 C 9.289062 9.644531 9.046875 9.894531 8.859375 10.105469 C 8.738281 10.226562 8.414062 10.550781 8.691406 11.027344 C 8.886719 11.363281 9.429688 12.222656 10.214844 12.921875 C 11.09375 13.703125 11.867188 14.039062 12.238281 14.203125 C 12.523438 14.308594 12.871094 14.613281 13.34375 14.132812 C 13.476562 13.980469 14.007812 13.359375 14.203125 13.070312 C 14.257812 12.976562 14.273438 13.015625 14.417969 13.058594 C 14.757812 13.195312 16.042969 13.832031 16.539062 14.078125 C 16.554688 14.203125 16.542969 14.582031 16.371094 15.0625 C 16.234375 15.453125 16.820312 15.667969 16.96875 15.277344 C 17.191406 14.660156 17.242188 14.003906 17.097656 13.757812 C 16.976562 13.550781 16.699219 13.449219 16.460938 13.332031 C 16.449219 13.324219 14.929688 12.566406 14.632812 12.460938 C 14.429688 12.386719 13.996094 12.230469 13.671875 12.714844 C 13.511719 12.957031 13.023438 13.53125 12.867188 13.710938 C 12.804688 13.777344 12.820312 13.761719 12.679688 13.703125 C 12.121094 13.445312 11.570312 13.261719 10.636719 12.445312 C 9.921875 11.808594 9.421875 11.015625 9.242188 10.707031 C 9.222656 10.675781 9.21875 10.660156 9.214844 10.65625 C 9.332031 10.523438 9.46875 10.390625 9.589844 10.234375 Z M 9.589844 10.234375 "/>
</g>
</svg>
